<svg xmlns="http://www.w3.org/2000/svg" viewBox="0 0 1000 598.6"><path fill="currentColor" d="M906.3 136.3c0-37.5-30.4-67.8-67.8-67.8-1.2 0-2.3 0-3.5.1-72.1 1.8-130.3 59.9-132.1 132.1-.1 1.2-.1 2.3-.1 3.5 0 37.5 30.4 67.8 67.8 67.8s67.8-30.4 67.8-67.8C875.9 204.1 906.3 173.7 906.3 136.3M254.4 236.8v-33.9c0-56.2-45.6-101.8-101.8-101.8-30.4 0-57.7 13.3-76.3 34.5-2.8-.3-5.6-.5-8.5-.5C30.4 135.1 0 165.5 0 202.9v33.9c0 37.5 30.4 67.8 67.8 67.8 25.5 0 47.8-14.1 59.4-35 11.6 20.9 33.8 35 59.4 35C224 304.7 254.4 274.3 254.4 236.8M756.9 458.8v-33.9c0-56.2-45.6-101.8-101.8-101.8-30.4 0-57.7 13.3-76.3 34.5-2.8-.3-5.6-.5-8.5-.5-37.5 0-67.8 30.4-67.8 67.8v33.9c0 37.5 30.4 67.8 67.8 67.8 25.5 0 47.8-14.1 59.4-35 11.6 20.9 33.8 35 59.4 35C726.5 526.6 756.9 496.3 756.9 458.8M490 513.4v-33.9c0-37.5-30.4-67.8-67.8-67.8-20.7 0-39.2 9.3-51.6 23.9-4.9-32.7-33-57.8-67.1-57.8-37.5 0-67.8 30.4-67.8 67.8v33.9c0 56.2 45.6 101.8 101.8 101.8 17 0 32.9-4.2 47-11.5 10.8 7.3 23.8 11.5 37.8 11.5C459.6 581.2 490 550.8 490 513.4M220.5 421.4c0-15.3-5.1-29.4-13.6-40.7 8.2-6.2 13.6-16 13.6-27.1 0-18.7-15.2-33.9-33.9-33.9-18.7 0-33.9 15.2-33.9 33.9-37.5 0-67.8 30.4-67.8 67.8v67.8c0 37.5 30.4 67.8 67.8 67.8s67.8-30.4 67.8-67.8V421.4zM655.7 152c0 37.5-30.4 67.8-67.8 67.8-37.5 0-67.8-30.4-67.8-67.8 0-37.5 30.4-67.8 67.8-67.8C625.3 84.2 655.7 114.5 655.7 152M689.6 185.9v-67.8c0-37.5-30.4-67.8-67.8-67.8-5.2 0-10.3.6-15.2 1.7-6.1-1.1-12.3-1.7-18.7-1.7-56.2 0-101.8 45.6-101.8 101.8 0 56.2 45.6 101.8 101.8 101.8 6.4 0 12.6-.6 18.7-1.7 4.9 1.1 10 1.7 15.2 1.7C659.3 253.7 689.6 223.4 689.6 185.9"/><path fill="currentColor" d="M427.1 135.1c0 37.5-30.4 67.8-67.8 67.8s-67.8-30.4-67.8-67.8c0-37.5 30.4-67.8 67.8-67.8S427.1 97.6 427.1 135.1M460.3 146.8c11-12 17.7-28.1 17.7-45.6 0-37.5-30.4-67.8-67.8-67.8-8 0-15.7 1.4-22.8 3.9-8.9-2.6-18.3-3.9-28.1-3.9-56.2 0-101.8 45.6-101.8 101.8 0 56.2 45.6 101.8 101.8 101.8-37.5 0-67.8 30.4-67.8 67.8s30.4 67.8 67.8 67.8h33.9c56.2 0 101.8-45.6 101.8-101.8 0-36-18.8-67.7-47-85.8C454.4 173.5 458.7 160.6 460.3 146.8M932.2 361.2c0 37.5-30.4 67.8-67.8 67.8s-67.8-30.4-67.8-67.8c0-37.5 30.4-67.8 67.8-67.8S932.2 323.7 932.2 361.2M965.4 372.9c11-12 17.7-28.1 17.7-45.6 0-37.5-30.4-67.8-67.8-67.8-8 0-15.7 1.4-22.8 3.9-8.9-2.6-18.3-3.9-28.1-3.9-56.2 0-101.8 45.6-101.8 101.8 0 56.2 45.6 101.8 101.8 101.8-37.5 0-67.8 30.4-67.8 67.8s30.4 67.8 67.8 67.8h33.9c56.2 0 101.8-45.6 101.8-101.8 0-36-18.8-67.7-47-85.8C959.5 399.6 963.8 386.7 965.4 372.9M136.8 4.8h-4.4c-8.6 0-15.5 6.9-15.5 15.5V48c0 5.5 4.5 10 10 10 5.5 0 10-4.5 10-10v-3.3c11 0 19.9-8.9 19.9-19.9S147.8 4.8 136.8 4.8M222 13.9h-4.4c-8.6 0-15.5 6.9-15.5 15.5v27.7c0 5.5 4.5 10 10 10 5.5 0 10-4.5 10-10v-3.3c11 0 19.9-8.9 19.9-19.9C241.9 22.8 233 13.9 222 13.9M199.2 19.9 199.2 19.9c0-11-8.9-19.9-19.9-19.9-11 0-19.9 8.9-19.9 19.9 0 2.6 1 5.1 2.9 7 3.2 3.2 8.1 3.8 11.8 1.7l-9.6 5.8c-.3.1-.5.3-.7.5h0c-.5.4-1.1.8-1.5 1.3-3.9 3.9-3.9 10.2 0 14.1 1.9 1.9 4.5 2.9 7 2.9h19.9c5.5 0 10-4.5 10-10 0-5.5-4.5-10-10-10h-2.7l7.8-4.7c0 0 0 0 .1 0l.4-.2h0c.5-.4 1.1-.8 1.6-1.3C198.3 25 199.2 22.5 199.2 19.9"/></svg>